<svg width="124" height="40" viewBox="0 0 124 40" fill="none" xmlns="http://www.w3.org/2000/svg">
<g clip-path="url(#clip0_13323_7424)">
<path d="M14.2175 14.3213L22.5078 23.4144L25.2255 21.846V7.282L12.6138 0L0 7.282V21.846L12.6138 29.128L19.6261 25.0783L9.75705 14.3254L14.2175 14.3213Z" fill="#FFCD00"/>
<path fill-rule="evenodd" clip-rule="evenodd" d="M37.5575 6.755C42.2605 6.75503 45.0197 10.3254 45.0197 15.9891H34.1902C34.684 17.6156 35.991 18.7194 37.7607 18.7194C38.9515 18.7173 40.4017 18.1655 41.215 17.3813L43.9162 20.1405C42.58 21.5346 39.997 22.4643 37.7897 22.4643C33.319 22.4642 29.8335 19.1842 29.8335 14.5661C29.8335 10.0371 33.1717 6.755 37.5575 6.755ZM37.7295 10.4997C36.1342 10.4997 34.798 11.4292 34.2462 12.9395H40.9535C40.547 11.4582 39.4432 10.4997 37.7295 10.4997Z" fill="#1D2632"/>
<path fill-rule="evenodd" clip-rule="evenodd" d="M99.9458 6.9314C104.193 6.9314 107.78 10.4229 107.78 14.5555C107.78 16.0866 107.296 17.5783 106.385 18.8708L107.541 20.1406L112.846 14.3191L106.332 7.15337H110.524L114.945 12.0122L119.375 7.15535H123.568L117.049 14.3252L123.974 21.9371H119.769L119.711 21.8728L114.948 16.6344L110.126 21.9393H105.062L105.004 21.8749L103.996 20.7796C102.834 21.7215 101.473 22.2007 99.9458 22.2007C95.6991 22.2006 92.1118 18.7006 92.1118 14.5555C92.1121 10.4229 95.6991 6.93142 99.9458 6.9314ZM99.9438 10.1284C97.6368 10.1284 95.6866 12.1531 95.6866 14.5514C95.6866 16.9621 97.6368 18.9973 99.9438 18.9973C100.72 18.9973 101.346 18.7983 101.813 18.4083L98.0536 14.3252H102.249L103.923 16.1635C104.116 15.6698 104.222 15.1177 104.222 14.5514C104.222 12.1531 102.261 10.1284 99.9438 10.1284Z" fill="#1D2632"/>
<path fill-rule="evenodd" clip-rule="evenodd" d="M54.7373 7.1803C57.4155 7.1803 59.287 8.74037 59.287 10.9768C59.287 12.3378 58.6728 13.4311 57.5048 14.1635C59.044 14.9726 59.9155 16.3024 59.9175 17.8604C59.9175 20.2691 57.899 21.9496 55.011 21.9496H47.2603V7.1803H54.7373ZM50.7333 18.9144H54.4468C55.5733 18.9144 56.3598 18.2754 56.3598 17.3563C56.3598 16.4393 55.5733 15.7982 54.4468 15.7982H50.7333V18.9144ZM50.731 12.9747H53.9635C55.0048 12.9746 55.731 12.4021 55.731 11.5827C55.731 10.7902 54.9883 10.2133 53.9635 10.2133H50.731V12.9747Z" fill="#1D2632"/>
<path d="M74.9491 21.9496H71.4553V7.1803H74.9491V21.9496Z" fill="#1D2632"/>
<path d="M64.9346 18.7693H69.7998V21.9393H63.2896L61.4763 19.6427V7.1803H64.9346V18.7693Z" fill="#1D2632"/>
<path d="M79.7181 7.15318L87.2181 15.6822V7.18033H90.6763V21.9394H88.6536L80.6433 13.0618V21.9394H77.1851V7.14093L79.7181 7.15318Z" fill="#1D2632"/>
<path d="M98.4023 33.5252C98.8456 32.4555 100.007 31.7217 101.459 31.7217V32.593C99.6708 32.593 98.4023 33.7545 98.4023 35.39V39.807H97.4546V31.9052H98.4023V33.5252Z" fill="#1D2632"/>
<path d="M91.3741 39.9905C89.1578 39.9905 87.2778 38.0952 87.2778 35.8485C87.2778 33.6017 89.1578 31.7217 91.3741 31.7217C93.5903 31.7217 95.4548 33.6017 95.4548 35.8485C95.4548 38.0952 93.5903 39.9905 91.3741 39.9905ZM91.3741 39.1192C93.0553 39.1192 94.4613 37.6367 94.4613 35.8485C94.4613 34.0755 93.0553 32.593 91.3741 32.593C89.6776 32.593 88.2713 34.0755 88.2713 35.8485C88.2713 37.6367 89.6776 39.1192 91.3741 39.1192Z" fill="#1D2632"/>
<path d="M75.2229 39.8073L71.6616 29.307H72.7621L75.7731 38.1718L78.6924 29.307H79.7776L82.7121 38.1718L85.7079 29.307H86.8084L83.2471 39.8073H82.2536L79.2426 30.6368L76.2164 39.8073H75.2229Z" fill="#1D2632"/>
<path fill-rule="evenodd" clip-rule="evenodd" d="M108.392 29.101C111.32 29.101 113.773 31.5843 113.773 34.5428C113.773 35.8765 113.282 37.1028 112.47 38.0685L113.729 39.226L117.945 34.488L113.444 29.3748H114.652L118.542 33.691L122.447 29.3748H123.655L119.154 34.488L123.959 39.9053H122.751L118.542 35.2698L114.333 39.9053H113.211L113.104 39.9138L111.78 38.7583C110.845 39.5248 109.664 40 108.392 40C105.48 40 102.996 37.5013 102.996 34.5428C102.996 31.5843 105.48 29.101 108.392 29.101ZM108.392 30.0205C106.001 30.0205 103.993 32.0903 103.993 34.5428C103.993 37.0108 106.001 39.08 108.392 39.08C109.389 39.08 110.308 38.7278 111.059 38.1298L107.897 35.2128H109.292L111.734 37.44C112.378 36.6583 112.776 35.6313 112.776 34.5428C112.776 32.0903 110.784 30.0205 108.392 30.0205Z" fill="#1D2632"/>
</g>
<defs>
<clipPath id="clip0_13323_7424">
<rect width="124" height="40" fill="white"/>
</clipPath>
</defs>
</svg>
