<svg width="124" height="51" viewBox="0 0 124 51" fill="none" xmlns="http://www.w3.org/2000/svg">
<g clip-path="url(#clip0_13686_2574)">
<path d="M14.2175 25.3213L22.5078 34.4144L25.2255 32.846V18.282L12.6138 11L0 18.282V32.846L12.6138 40.128L19.6261 36.0783L9.75705 25.3254L14.2175 25.3213Z" fill="#FFCD00"/>
<path fill-rule="evenodd" clip-rule="evenodd" d="M37.5575 17.7559C42.2605 17.7559 45.0197 21.3263 45.0197 26.99H34.1902C34.684 28.6165 35.991 29.7202 37.7607 29.7202C38.9515 29.7181 40.4017 29.1663 41.215 28.3821L43.9162 31.1413C42.58 32.5355 39.997 33.4651 37.7897 33.4651C33.319 33.4651 29.8335 30.185 29.8335 25.5669C29.8335 21.038 33.1717 17.7559 37.5575 17.7559ZM37.7295 21.5005C36.1342 21.5005 34.798 22.43 34.2462 23.9403H40.9535C40.547 22.459 39.4432 21.5005 37.7295 21.5005Z" fill="white"/>
<path fill-rule="evenodd" clip-rule="evenodd" d="M99.9458 17.9316C104.193 17.9316 107.78 21.4231 107.78 25.5558C107.78 27.0869 107.296 28.5786 106.385 29.8711L107.541 31.1409L112.846 25.3194L106.332 18.1536H110.524L114.945 23.0124L119.375 18.1556H123.568L117.049 25.3255L123.974 32.9374H119.769L119.711 32.873L114.948 27.6346L110.126 32.9396H105.062L105.004 32.8752L103.996 31.7798C102.834 32.7217 101.473 33.2009 99.9458 33.2009C95.6991 33.2009 92.1118 29.7009 92.1118 25.5558C92.1121 21.4231 95.6991 17.9317 99.9458 17.9316ZM99.9438 21.1286C97.6368 21.1286 95.6866 23.1534 95.6866 25.5516C95.6866 27.9623 97.6368 29.9976 99.9438 29.9976C100.72 29.9976 101.346 29.7985 101.813 29.4085L98.0536 25.3255H102.249L103.923 27.1638C104.116 26.67 104.222 26.118 104.222 25.5516C104.222 23.1534 102.261 21.1287 99.9438 21.1286Z" fill="white"/>
<path fill-rule="evenodd" clip-rule="evenodd" d="M54.7373 18.1797C57.4155 18.1797 59.287 19.7398 59.287 21.9762C59.287 23.3372 58.6728 24.4305 57.5048 25.1629C59.044 25.972 59.9155 27.3018 59.9175 28.8598C59.9175 31.2685 57.899 32.949 55.011 32.949H47.2603V18.1797H54.7373ZM50.7333 29.9138H54.4468C55.5733 29.9138 56.3598 29.2748 56.3598 28.3557C56.3598 27.4387 55.5733 26.7976 54.4468 26.7976H50.7333V29.9138ZM50.731 23.9741H53.9635C55.0048 23.974 55.731 23.4015 55.731 22.5821C55.731 21.7896 54.9883 21.2127 53.9635 21.2127H50.731V23.9741Z" fill="white"/>
<path d="M74.9488 32.949H71.4551V18.1797H74.9488V32.949Z" fill="white"/>
<path d="M64.9343 29.7687H69.7996V32.9387H63.2893L61.4761 30.6421V18.1797H64.9343V29.7687Z" fill="white"/>
<path d="M79.7181 18.1529L87.2181 26.6819V18.18H90.6763V32.9391H88.6536L80.6433 24.0615V32.9391H77.1851V18.1406L79.7181 18.1529Z" fill="white"/>
<path d="M98.4023 44.5262C98.8456 43.4564 100.007 42.7227 101.459 42.7227V43.5939C99.6708 43.5939 98.4023 44.7554 98.4023 46.3909V50.8079H97.4546V42.9062H98.4023V44.5262Z" fill="white"/>
<path d="M91.3741 50.9914C89.1578 50.9914 87.2778 49.0962 87.2778 46.8494C87.2778 44.6027 89.1578 42.7227 91.3741 42.7227C93.5903 42.7227 95.4548 44.6027 95.4548 46.8494C95.4548 49.0962 93.5903 50.9914 91.3741 50.9914ZM91.3741 50.1202C93.0553 50.1202 94.4613 48.6377 94.4613 46.8494C94.4613 45.0764 93.0553 43.5939 91.3741 43.5939C89.6776 43.5939 88.2713 45.0764 88.2713 46.8494C88.2713 48.6377 89.6776 50.1202 91.3741 50.1202Z" fill="white"/>
<path d="M75.2229 50.8069L71.6616 40.3066H72.7621L75.7731 49.1714L78.6924 40.3066H79.7776L82.7121 49.1714L85.7079 40.3066H86.8084L83.2471 50.8069H82.2536L79.2426 41.6364L76.2164 50.8069H75.2229Z" fill="white"/>
<path fill-rule="evenodd" clip-rule="evenodd" d="M108.392 40.1016C111.32 40.1016 113.773 42.5848 113.773 45.5433C113.773 46.8771 113.282 48.1033 112.47 49.0691L113.729 50.2266L117.945 45.4886L113.444 40.3753H114.652L118.542 44.6916L122.447 40.3753H123.655L119.154 45.4886L123.959 50.9058H122.751L118.542 46.2703L114.333 50.9058H113.211L113.104 50.9143L111.78 49.7588C110.845 50.5253 109.664 51.0006 108.392 51.0006C105.48 51.0006 102.996 48.5018 102.996 45.5433C102.996 42.5848 105.48 40.1016 108.392 40.1016ZM108.392 41.0211C106.001 41.0211 103.993 43.0908 103.993 45.5433C103.993 48.0113 106.001 50.0806 108.392 50.0806C109.389 50.0806 110.308 49.7283 111.059 49.1303L107.897 46.2133H109.292L111.734 48.4406C112.378 47.6588 112.776 46.6318 112.776 45.5433C112.776 43.0908 110.784 41.0211 108.392 41.0211Z" fill="white"/>
</g>
<defs>
<clipPath id="clip0_13686_2574">
<rect width="124" height="40" fill="white" transform="translate(0 11)"/>
</clipPath>
</defs>
</svg>
